0
SECTION
2
HEADER
9
$INSUNITS
70
1
9
$ACADVER
1
AC1014
9
$HANDSEED
5
FFFF
0
ENDSEC
0
SECTION
2
TABLES
0
TABLE
2
VPORT
5
8
100
AcDbSymbolTable
0
ENDTAB
0
TABLE
2
LTYPE
5
5
100
AcDbSymbolTable
0
LTYPE
5
14
100
AcDbSymbolTableRecord
100
AcDbLinetypeTableRecord
2
BYBLOCK
70
0
0
LTYPE
5
15
100
AcDbSymbolTableRecord
100
AcDbLinetypeTableRecord
2
BYLAYER
70
0
0
ENDTAB
0
TABLE
2
LAYER
5
2
100
AcDbSymbolTable
70
2
0
LAYER
5
50
100
AcDbSymbolTableRecord
100
AcDbLayerTableRecord
2
0
70
0
6
CONTINUOUS
0
ENDTAB
0
TABLE
2
STYLE
5
3
100
AcDbSymbolTable
70
1
0
STYLE
5
11
100
AcDbSymbolTableRecord
100
AcDbTextStyleTableRecord
2
STANDARD
70
0
0
ENDTAB
0
TABLE
2
VIEW
5
6
100
AcDbSymbolTable
70
0
0
ENDTAB
0
TABLE
2
UCS
5
7
100
AcDbSymbolTable
70
0
0
ENDTAB
0
TABLE
2
APPID
5
9
100
AcDbSymbolTable
70
2
0
APPID
5
12
100
AcDbSymbolTableRecord
100
AcDbRegAppTableRecord
2
ACAD
70
0
0
ENDTAB
0
TABLE
2
DIMSTYLE
5
A
100
AcDbSymbolTable
70
1
0
ENDTAB
0
TABLE
2
BLOCK_RECORD
5
1
100
AcDbSymbolTable
70
1
0
BLOCK_RECORD
5
1F
100
AcDbSymbolTableRecord
100
AcDbBlockTableRecord
2
*MODEL_SPACE
0
BLOCK_RECORD
5
1B
100
AcDbSymbolTableRecord
100
AcDbBlockTableRecord
2
*PAPER_SPACE
0
ENDTAB
0
ENDSEC
0
SECTION
2
BLOCKS
0
BLOCK
5
20
100
AcDbEntity
100
AcDbBlockBegin
2
*MODEL_SPACE
0
ENDBLK
5
21
100
AcDbEntity
100
AcDbBlockEnd
0
BLOCK
5
1C
100
AcDbEntity
100
AcDbBlockBegin
2
*PAPER_SPACE
0
ENDBLK
5
1D
100
AcDbEntity
100
AcDbBlockEnd
0
ENDSEC
0
SECTION
2
ENTITIES
0
CIRCLE
5
100
100
AcDbEntity
8
0
100
AcDbCircle
10
4.8499999999999996
20
-0.39999999999999997
30
0
40
0.07874015748031496
210
0
220
-0
230
1
0
CIRCLE
5
101
100
AcDbEntity
8
0
100
AcDbCircle
10
0.89999999999999991
20
-0.39999999999999997
30
0
40
0.07874015748031496
210
0
220
-0
230
1
0
CIRCLE
5
102
100
AcDbEntity
8
0
100
AcDbCircle
10
2.875
20
-3.7250000000000001
30
0
40
0.07874015748031496
210
0
220
-0
230
1
0
CIRCLE
5
103
100
AcDbEntity
8
0
100
AcDbCircle
10
3.5249999999999999
20
-2.9250000000000003
30
0
40
0.33464566929133843
210
0
220
0
230
1
0
CIRCLE
5
104
100
AcDbEntity
8
0
100
AcDbCircle
10
0.92499999999999993
20
-2.9250000000000003
30
0
40
0.3346456692913386
210
0
220
0
230
1
0
CIRCLE
5
105
100
AcDbEntity
8
0
100
AcDbCircle
10
2.875
20
-1.4499999999999997
30
0
40
0.33464566929133843
210
0
220
0
230
1
0
CIRCLE
5
106
100
AcDbEntity
8
0
100
AcDbCircle
10
4.375
20
-1.4499999999999997
30
0
40
0.33464566929133843
210
0
220
0
230
1
0
CIRCLE
5
107
100
AcDbEntity
8
0
100
AcDbCircle
10
1.375
20
-1.4499999999999997
30
0
40
0.3346456692913386
210
0
220
0
230
1
0
CIRCLE
5
108
100
AcDbEntity
8
0
100
AcDbCircle
10
2.2250000000000001
20
-2.9250000000000003
30
0
40
0.33464566929133877
210
0
220
0
230
1
0
CIRCLE
5
109
100
AcDbEntity
8
0
100
AcDbCircle
10
4.8249999999999993
20
-2.9250000000000003
30
0
40
0.3346456692913391
210
0
220
0
230
1
0
LWPOLYLINE
5
110
100
AcDbEntity
8
0
100
AcDbPolyline
90
24
70
1
43
0.0
10
5.734375
20
-3.2343749999999996
42
-0.41421356237309509
10
5.65625
20
-3.3125
10
5.5625
20
-3.3125
42
0.41421356237309753
10
5.3125
20
-3.5624999999999996
10
5.3125
20
-4.0312499999999991
42
-0.41421356237309509
10
5.2343749999999991
20
-4.109375
10
0.515625000000001
20
-4.109375
42
-0.41421356237309509
10
0.4375
20
-4.0312499999999991
10
0.43749999999999989
20
-3.5624999999999996
42
0.41421356237309548
10
0.18750000000000008
20
-3.3125
10
0.093750000000000319
20
-3.3125
42
-0.41421356237309509
10
0.015624999999999774
20
-3.2343749999999996
10
0.01562499999999996
20
-0.89062499999999978
42
-0.4142135623730957
10
0.093750000000000042
20
-0.81249999999999989
10
0.18749999999999997
20
-0.81249999999999989
42
0.41421356237309515
10
0.4375
20
-0.56249999999999989
10
0.43749999999999983
20
-0.09375
42
-0.41421356237309415
10
0.51562499999999956
20
-0.015624999999999774
10
5.234375
20
-0.015625000000000309
42
-0.4142135623730957
10
5.3125
20
-0.093750000000000042
10
5.3125
20
-0.56249999999999989
42
0.4142135623730967
10
5.5625
20
-0.81249999999999989
10
5.65625
20
-0.81249999999999944
42
-0.41421356237309509
10
5.734375
20
-0.89062499999999978
0
ENDSEC
0
SECTION
2
OBJECTS
0
DICTIONARY
5
C
100
AcDbDictionary
3
ACAD_GROUP
350
D
3
ACAD_MLINESTYLE
350
17
0
DICTIONARY
5
D
100
AcDbDictionary
0
DICTIONARY
5
1A
330
C
100
AcDbDictionary
0
DICTIONARY
5
17
100
AcDbDictionary
0
ENDSEC
0
EOF
