0
SECTION
2
HEADER
9
$INSUNITS
70
1
9
$ACADVER
1
AC1014
9
$HANDSEED
5
FFFF
0
ENDSEC
0
SECTION
2
TABLES
0
TABLE
2
VPORT
5
8
100
AcDbSymbolTable
0
ENDTAB
0
TABLE
2
LTYPE
5
5
100
AcDbSymbolTable
0
LTYPE
5
14
100
AcDbSymbolTableRecord
100
AcDbLinetypeTableRecord
2
BYBLOCK
70
0
0
LTYPE
5
15
100
AcDbSymbolTableRecord
100
AcDbLinetypeTableRecord
2
BYLAYER
70
0
0
ENDTAB
0
TABLE
2
LAYER
5
2
100
AcDbSymbolTable
70
2
0
LAYER
5
50
100
AcDbSymbolTableRecord
100
AcDbLayerTableRecord
2
0
70
0
6
CONTINUOUS
0
ENDTAB
0
TABLE
2
STYLE
5
3
100
AcDbSymbolTable
70
1
0
STYLE
5
11
100
AcDbSymbolTableRecord
100
AcDbTextStyleTableRecord
2
STANDARD
70
0
0
ENDTAB
0
TABLE
2
VIEW
5
6
100
AcDbSymbolTable
70
0
0
ENDTAB
0
TABLE
2
UCS
5
7
100
AcDbSymbolTable
70
0
0
ENDTAB
0
TABLE
2
APPID
5
9
100
AcDbSymbolTable
70
2
0
APPID
5
12
100
AcDbSymbolTableRecord
100
AcDbRegAppTableRecord
2
ACAD
70
0
0
ENDTAB
0
TABLE
2
DIMSTYLE
5
A
100
AcDbSymbolTable
70
1
0
ENDTAB
0
TABLE
2
BLOCK_RECORD
5
1
100
AcDbSymbolTable
70
1
0
BLOCK_RECORD
5
1F
100
AcDbSymbolTableRecord
100
AcDbBlockTableRecord
2
*MODEL_SPACE
0
BLOCK_RECORD
5
1B
100
AcDbSymbolTableRecord
100
AcDbBlockTableRecord
2
*PAPER_SPACE
0
ENDTAB
0
ENDSEC
0
SECTION
2
BLOCKS
0
BLOCK
5
20
100
AcDbEntity
100
AcDbBlockBegin
2
*MODEL_SPACE
0
ENDBLK
5
21
100
AcDbEntity
100
AcDbBlockEnd
0
BLOCK
5
1C
100
AcDbEntity
100
AcDbBlockBegin
2
*PAPER_SPACE
0
ENDBLK
5
1D
100
AcDbEntity
100
AcDbBlockEnd
0
ENDSEC
0
SECTION
2
ENTITIES
0
CIRCLE
5
100
100
AcDbEntity
8
0
100
AcDbCircle
10
-5.139999937882104
20
3.3349999999999818
30
0
40
0.059055118110236358
210
0
220
0
230
1
0
CIRCLE
5
101
100
AcDbEntity
8
0
100
AcDbCircle
10
-2.6999999673699766
20
2.9250000000000003
30
0
40
0.059055118110236005
210
0
220
0
230
1
0
CIRCLE
5
102
100
AcDbEntity
8
0
100
AcDbCircle
10
-1.3997210827982154
20
2.9250000000000003
30
0
40
0.059055118110236178
210
0
220
0
230
1
0
CIRCLE
5
103
100
AcDbEntity
8
0
100
AcDbCircle
10
-2.9699999897731302
20
2.2651780679120668
30
0
40
0.059055118110236005
210
0
220
0
230
1
0
CIRCLE
5
104
100
AcDbEntity
8
0
100
AcDbCircle
10
-1.2650000000000008
20
1.0399999999999985
30
0
40
0.059055118110236178
210
0
220
0
230
1
0
CIRCLE
5
105
100
AcDbEntity
8
0
100
AcDbCircle
10
-2.9849999999999999
20
1.0399999999999994
30
0
40
0.059055118110236358
210
0
220
0
230
1
0
CIRCLE
5
106
100
AcDbEntity
8
0
100
AcDbCircle
10
-2.7700000000001719
20
0.66999999190292014
30
0
40
0.059055118110236358
210
0
220
0
230
1
0
CIRCLE
5
107
100
AcDbEntity
8
0
100
AcDbCircle
10
-2.7968959999999994
20
0.27999951968504039
30
0
40
0.059055118110236005
210
0
220
0
230
1
0
CIRCLE
5
108
100
AcDbEntity
8
0
100
AcDbCircle
10
-2.9468959999999997
20
0.41999951968504073
30
0
40
0.059055118110236358
210
0
220
0
230
1
0
CIRCLE
5
109
100
AcDbEntity
8
0
100
AcDbCircle
10
-2.9800000000001718
20
0.78999999045269687
30
0
40
0.059055118110236358
210
0
220
0
230
1
0
CIRCLE
5
110
100
AcDbEntity
8
0
100
AcDbCircle
10
-3.6249999999999996
20
1.0399999999999996
30
0
40
0.059055118110236358
210
0
220
0
230
1
0
CIRCLE
5
111
100
AcDbEntity
8
0
100
AcDbCircle
10
-1.4850000000000005
20
1.0399999999999991
30
0
40
0.059055118110236178
210
0
220
0
230
1
0
CIRCLE
5
112
100
AcDbEntity
8
0
100
AcDbCircle
10
-3.1699999897731304
20
2.1450081920504971
30
0
40
0.059055118110236358
210
0
220
0
230
1
0
CIRCLE
5
113
100
AcDbEntity
8
0
100
AcDbCircle
10
-1.3997210827982154
20
3.335000000000186
30
0
40
0.059055118110236178
210
0
220
0
230
1
0
CIRCLE
5
114
100
AcDbEntity
8
0
100
AcDbCircle
10
-2.6999999673699766
20
2.5149999999999983
30
0
40
0.059055118110236358
210
0
220
0
230
1
0
CIRCLE
5
115
100
AcDbEntity
8
0
100
AcDbCircle
10
-3.9999999516592246
20
2.5150000000000987
30
0
40
0.059055118110235658
210
0
220
0
230
1
0
CIRCLE
5
116
100
AcDbEntity
8
0
100
AcDbCircle
10
-5.1249999999999991
20
2.5149999999999983
30
0
40
0.059055118110236358
210
0
220
0
230
1
0
CIRCLE
5
117
100
AcDbEntity
8
0
100
AcDbCircle
10
-3.9588309999997913
20
3.3349999999999445
30
0
40
0.059055118110236358
210
0
220
0
230
1
0
CIRCLE
5
118
100
AcDbEntity
8
0
100
AcDbCircle
10
-1.2849999999992818
20
2.5150000000009314
30
0
40
0.059055118110236178
210
0
220
0
230
1
0
CIRCLE
5
119
100
AcDbEntity
8
0
100
AcDbCircle
10
-2.76999998977313
20
2.1450081920504971
30
0
40
0.059055118110236358
210
0
220
0
230
1
0
CIRCLE
5
120
100
AcDbEntity
8
0
100
AcDbCircle
10
-2.125
20
1.8599999999999997
30
0
40
0.059055118110236005
210
0
220
0
230
1
0
CIRCLE
5
121
100
AcDbEntity
8
0
100
AcDbCircle
10
-2.7649999999999997
20
1.0399999999999994
30
0
40
0.059055118110236358
210
0
220
0
230
1
0
CIRCLE
5
122
100
AcDbEntity
8
0
100
AcDbCircle
10
-2.5700000000001717
20
0.78999999045269687
30
0
40
0.059055118110236358
210
0
220
0
230
1
0
CIRCLE
5
123
100
AcDbEntity
8
0
100
AcDbCircle
10
-2.6468959999999995
20
0.41999951968504073
30
0
40
0.059055118110236358
210
0
220
0
230
1
0
CIRCLE
5
124
100
AcDbEntity
8
0
100
AcDbCircle
10
-3.0968959999999996
20
0.27999951968504039
30
0
40
0.059055118110236005
210
0
220
0
230
1
0
CIRCLE
5
125
100
AcDbEntity
8
0
100
AcDbCircle
10
-3.1800000000001716
20
0.66999999190292014
30
0
40
0.059055118110236358
210
0
220
0
230
1
0
CIRCLE
5
126
100
AcDbEntity
8
0
100
AcDbCircle
10
-4.375
20
1.0399999999999998
30
0
40
0.059055118110236358
210
0
220
0
230
1
0
CIRCLE
5
127
100
AcDbEntity
8
0
100
AcDbCircle
10
-2.125
20
1.0399999999999996
30
0
40
0.059055118110236358
210
0
220
0
230
1
0
CIRCLE
5
128
100
AcDbEntity
8
0
100
AcDbCircle
10
-3.6249999999999996
20
1.8599999999999997
30
0
40
0.059055118110236358
210
0
220
0
230
1
0
CIRCLE
5
129
100
AcDbEntity
8
0
100
AcDbCircle
10
-2.5699999897731303
20
2.2651780679120668
30
0
40
0.059055118110236005
210
0
220
0
230
1
0
CIRCLE
5
130
100
AcDbEntity
8
0
100
AcDbCircle
10
-1.5849999999992821
20
2.5150000000009314
30
0
40
0.059055118110236178
210
0
220
0
230
1
0
CIRCLE
5
131
100
AcDbEntity
8
0
100
AcDbCircle
10
-3.9999999516592246
20
2.9250000000000003
30
0
40
0.059055118110236358
210
0
220
0
230
1
0
CIRCLE
5
132
100
AcDbEntity
8
0
100
AcDbCircle
10
-5.3949999999999987
20
2.5149999999999983
30
0
40
0.059055118110236358
210
0
220
0
230
1
0
CIRCLE
5
133
100
AcDbEntity
8
0
100
AcDbCircle
10
-4.8499999999999996
20
0.39999999999999997
30
0
40
0.07874015748031496
210
0
220
0
230
1
0
CIRCLE
5
134
100
AcDbEntity
8
0
100
AcDbCircle
10
-0.89999999999999991
20
0.39999999999999997
30
0
40
0.07874015748031496
210
0
220
0
230
1
0
CIRCLE
5
135
100
AcDbEntity
8
0
100
AcDbCircle
10
-2.875
20
3.7250000000000001
30
0
40
0.07874015748031496
210
0
220
0
230
1
0
LWPOLYLINE
5
136
100
AcDbEntity
8
0
100
AcDbPolyline
90
4
70
1
43
0.0
10
-2.257499999999999
20
2.6927630520352115
42
-14.361136860455289
10
-2.1925000000000003
20
2.6927630520352115
10
-2.1925000000000003
20
2.7215000000000003
10
-2.2574999999999998
20
2.7215000000000003
0
LWPOLYLINE
5
137
100
AcDbEntity
8
0
100
AcDbPolyline
90
4
70
1
43
0.0
10
-1.4075000000000002
20
1.2177630520352107
42
-14.36113686045497
10
-1.3425
20
1.217763052035211
10
-1.3425
20
1.2464999999999997
10
-1.4075
20
1.2464999999999997
0
LWPOLYLINE
5
138
100
AcDbEntity
8
0
100
AcDbPolyline
90
4
70
1
43
0.0
10
-0.95749999999999968
20
2.6927630520352115
42
-14.361136860455153
10
-0.89250000000000029
20
2.6927630520352115
10
-0.89249999999999996
20
2.7215000000000003
10
-0.95749999999999935
20
2.7215000000000003
0
LWPOLYLINE
5
139
100
AcDbEntity
8
0
100
AcDbPolyline
90
4
70
1
43
0.0
10
-3.5575000000000001
20
2.6927630520352124
42
-14.36113686045506
10
-3.4924999999999997
20
2.6927630520352119
10
-3.4924999999999997
20
2.7215000000000003
10
-3.5574999999999997
20
2.7215000000000003
0
LWPOLYLINE
5
140
100
AcDbEntity
8
0
100
AcDbPolyline
90
4
70
1
43
0.0
10
-2.9074999999999993
20
1.217763052035211
42
-14.361136860455243
10
-2.8425000000000002
20
1.217763052035211
10
-2.8425000000000002
20
1.2464999999999997
10
-2.9075000000000002
20
1.2464999999999997
0
LWPOLYLINE
5
141
100
AcDbEntity
8
0
100
AcDbPolyline
90
4
70
1
43
0.0
10
-4.4075000000000015
20
1.217763052035211
42
-14.361136860454829
10
-4.3425000000000002
20
1.2177630520352112
10
-4.3425000000000002
20
1.2464999999999997
10
-4.4075000000000006
20
1.2464999999999997
0
LWPOLYLINE
5
142
100
AcDbEntity
8
0
100
AcDbPolyline
90
4
70
1
43
0.0
10
-4.8574999999999999
20
2.6927630520352119
42
-14.36113686045497
10
-4.7924999999999995
20
2.6927630520352119
10
-4.7925000000000004
20
2.7215000000000003
10
-4.8574999999999999
20
2.7215000000000003
0
CIRCLE
5
143
100
AcDbEntity
8
0
100
AcDbCircle
10
-5.5625
20
0.56249999999999989
30
0
40
0.098425196850393692
210
0
220
-0
230
1
0
CIRCLE
5
144
100
AcDbEntity
8
0
100
AcDbCircle
10
-0.1875
20
0.56249999999999989
30
0
40
0.09842519685039372
210
0
220
-0
230
1
0
CIRCLE
5
145
100
AcDbEntity
8
0
100
AcDbCircle
10
-5.5625
20
3.5624999999999996
30
0
40
0.098425196850393692
210
0
220
-0
230
1
0
CIRCLE
5
146
100
AcDbEntity
8
0
100
AcDbCircle
10
-0.1875
20
3.5624999999999996
30
0
40
0.09842519685039372
210
0
220
-0
230
1
0
LINE
5
147
100
AcDbEntity
8
0
100
AcDbLine
10
0
20
4.125
30
0
11
0
21
0
31
0
0
LINE
5
148
100
AcDbEntity
8
0
100
AcDbLine
10
0
20
0
30
0
11
-5.75
21
-1.6984579037115778e-32
31
0
0
LINE
5
149
100
AcDbEntity
8
0
100
AcDbLine
10
-5.75
20
-1.6984579037115778e-32
30
0
11
-5.75
21
4.125
31
0
0
LINE
5
150
100
AcDbEntity
8
0
100
AcDbLine
10
-5.75
20
4.125
30
0
11
0
21
4.125
31
0
0
ENDSEC
0
SECTION
2
OBJECTS
0
DICTIONARY
5
C
100
AcDbDictionary
3
ACAD_GROUP
350
D
3
ACAD_MLINESTYLE
350
17
0
DICTIONARY
5
D
100
AcDbDictionary
0
DICTIONARY
5
1A
330
C
100
AcDbDictionary
0
DICTIONARY
5
17
100
AcDbDictionary
0
ENDSEC
0
EOF
