0
SECTION
2
HEADER
9
$INSUNITS
70
1
9
$ACADVER
1
AC1014
9
$HANDSEED
5
FFFF
0
ENDSEC
0
SECTION
2
TABLES
0
TABLE
2
VPORT
5
8
100
AcDbSymbolTable
0
ENDTAB
0
TABLE
2
LTYPE
5
5
100
AcDbSymbolTable
0
LTYPE
5
14
100
AcDbSymbolTableRecord
100
AcDbLinetypeTableRecord
2
BYBLOCK
70
0
0
LTYPE
5
15
100
AcDbSymbolTableRecord
100
AcDbLinetypeTableRecord
2
BYLAYER
70
0
0
ENDTAB
0
TABLE
2
LAYER
5
2
100
AcDbSymbolTable
70
2
0
LAYER
5
50
100
AcDbSymbolTableRecord
100
AcDbLayerTableRecord
2
0
70
0
6
CONTINUOUS
0
ENDTAB
0
TABLE
2
STYLE
5
3
100
AcDbSymbolTable
70
1
0
STYLE
5
11
100
AcDbSymbolTableRecord
100
AcDbTextStyleTableRecord
2
STANDARD
70
0
0
ENDTAB
0
TABLE
2
VIEW
5
6
100
AcDbSymbolTable
70
0
0
ENDTAB
0
TABLE
2
UCS
5
7
100
AcDbSymbolTable
70
0
0
ENDTAB
0
TABLE
2
APPID
5
9
100
AcDbSymbolTable
70
2
0
APPID
5
12
100
AcDbSymbolTableRecord
100
AcDbRegAppTableRecord
2
ACAD
70
0
0
ENDTAB
0
TABLE
2
DIMSTYLE
5
A
100
AcDbSymbolTable
70
1
0
ENDTAB
0
TABLE
2
BLOCK_RECORD
5
1
100
AcDbSymbolTable
70
1
0
BLOCK_RECORD
5
1F
100
AcDbSymbolTableRecord
100
AcDbBlockTableRecord
2
*MODEL_SPACE
0
BLOCK_RECORD
5
1B
100
AcDbSymbolTableRecord
100
AcDbBlockTableRecord
2
*PAPER_SPACE
0
ENDTAB
0
ENDSEC
0
SECTION
2
BLOCKS
0
BLOCK
5
20
100
AcDbEntity
100
AcDbBlockBegin
2
*MODEL_SPACE
0
ENDBLK
5
21
100
AcDbEntity
100
AcDbBlockEnd
0
BLOCK
5
1C
100
AcDbEntity
100
AcDbBlockBegin
2
*PAPER_SPACE
0
ENDBLK
5
1D
100
AcDbEntity
100
AcDbBlockEnd
0
ENDSEC
0
SECTION
2
ENTITIES
0
CIRCLE
5
100
100
AcDbEntity
8
0
100
AcDbCircle
10
-2.4750000000000001
20
0.18562499999999987
30
0
40
0.059055118110236005
210
0
220
0
230
1
0
CIRCLE
5
101
100
AcDbEntity
8
0
100
AcDbCircle
10
-2.875
20
0.18562499999999993
30
0
40
0.059055118110236358
210
0
220
0
230
1
0
CIRCLE
5
102
100
AcDbEntity
8
0
100
AcDbCircle
10
-3.2749999999999999
20
0.18562499999999987
30
0
40
0.059055118110236358
210
0
220
0
230
1
0
CIRCLE
5
103
100
AcDbEntity
8
0
100
AcDbCircle
10
-0.71000000000028007
20
1.5762204724409445
30
0
40
0.039370078740157514
210
0
220
-0
230
1
0
CIRCLE
5
104
100
AcDbEntity
8
0
100
AcDbCircle
10
-5.04
20
1.1037795275592373
30
0
40
0.039370078740157334
210
0
220
-0
230
1
0
CIRCLE
5
105
100
AcDbEntity
8
0
100
AcDbCircle
10
-4.7125000000000004
20
2.8822342519685038
30
0
40
0.059055118110236358
210
0
220
-0
230
1
0
CIRCLE
5
106
100
AcDbEntity
8
0
100
AcDbCircle
10
-1.0374999999999999
20
2.8822342519685038
30
0
40
0.059055118110236178
210
0
220
-0
230
1
0
LWPOLYLINE
5
107
100
AcDbEntity
8
0
100
AcDbPolyline
90
2
70
1
43
0.0
10
-0.2611437007874029
20
3.0329222727695275
42
2.1164716050054921
10
-0.2611437007874029
20
3.1545777272304729
0
LWPOLYLINE
5
108
100
AcDbEntity
8
0
100
AcDbPolyline
90
2
70
1
43
0.0
10
-5.4888562992125971
20
3.1545777272304729
10
-5.4888562992125971
20
3.0329222727695275
42
-2.116471605005481
0
LWPOLYLINE
5
109
100
AcDbEntity
8
0
100
AcDbPolyline
90
4
70
1
43
0.0
10
-0.0098425196850395087
20
0.0098425196850393335
10
-0.0098425196850393335
20
4.8651574803149602
10
-5.7401574803149611
20
4.8651574803149602
10
-5.7401574803149602
20
0.0098425196850395087
0
CIRCLE
5
110
100
AcDbEntity
8
0
100
AcDbCircle
10
-0.63750000000000018
20
4.11625
30
0
40
0.059055118110236178
210
0
220
-0
230
1
0
CIRCLE
5
111
100
AcDbEntity
8
0
100
AcDbCircle
10
-5.1125000000000007
20
4.5650000000000004
30
0
40
0.059055118110236358
210
0
220
-0
230
1
0
CIRCLE
5
112
100
AcDbEntity
8
0
100
AcDbCircle
10
-0.6374999999999994
20
4.5649999999999995
30
0
40
0.059055118110236178
210
0
220
-0
230
1
0
CIRCLE
5
113
100
AcDbEntity
8
0
100
AcDbCircle
10
-5.1124999999999989
20
4.11625
30
0
40
0.059055118110236358
210
0
220
-0
230
1
0
CIRCLE
5
114
100
AcDbEntity
8
0
100
AcDbCircle
10
-1.2116141732283452
20
1.1521998031496441
30
0
40
0.059055118110236358
210
-0
220
0
230
1
0
CIRCLE
5
115
100
AcDbEntity
8
0
100
AcDbCircle
10
-4.5383858267716528
20
0.34905019685043148
30
0
40
0.059055118110236358
210
0
220
-0
230
1
0
CIRCLE
5
116
100
AcDbEntity
8
0
100
AcDbCircle
10
-1.2116141732283452
20
0.34905019685043148
30
0
40
0.059055118110236358
210
0
220
-0
230
1
0
CIRCLE
5
117
100
AcDbEntity
8
0
100
AcDbCircle
10
-4.5383858267716528
20
1.1521998031496441
30
0
40
0.059055118110236358
210
-0
220
0
230
1
0
LWPOLYLINE
5
118
100
AcDbEntity
8
0
100
AcDbPolyline
90
8
70
1
43
0.0
10
-1.3361132937074023
20
1.2112549212598802
42
0.70512098329609252
10
-1.1525590551181091
20
1.0277006826705395
10
-1.1525590551181089
20
0.47354931732946903
42
0.70512098329613482
10
-1.3361132937074338
20
0.28999507874019531
10
-4.4138867062925691
20
0.28999507874019531
42
0.70512098329614048
10
-4.5974409448818889
20
0.47354931732946909
10
-4.5974409448818889
20
1.0277006826705397
42
0.70512098329609774
10
-4.4138867062925984
20
1.2112549212598802
0
CIRCLE
5
119
100
AcDbEntity
8
0
100
AcDbCircle
10
-4.0804831002703965
20
0.15482636171926903
30
0
40
0.059055118110236358
210
0
220
-0
230
1
0
CIRCLE
5
120
100
AcDbEntity
8
0
100
AcDbCircle
10
-1.6695168997296035
20
0.15482636171926903
30
0
40
0.059055118110236358
210
0
220
-0
230
1
0
CIRCLE
5
121
100
AcDbEntity
8
0
100
AcDbCircle
10
-4.0424999999999995
20
3.2562500000000032
30
0
40
0.059055118110236358
210
0
220
0
230
1
0
CIRCLE
5
122
100
AcDbEntity
8
0
100
AcDbCircle
10
-3.0070434930988807
20
3.6180610236220359
30
0
40
0.059055118110236005
210
0
220
0
230
1
0
CIRCLE
5
123
100
AcDbEntity
8
0
100
AcDbCircle
10
-1.8774999999999991
20
3.2562500000000005
30
0
40
0.059055118110236005
210
0
220
0
230
1
0
CIRCLE
5
124
100
AcDbEntity
8
0
100
AcDbCircle
10
-3.5006889763779516
20
2.6918109905017467
30
0
40
0.059055118110236358
210
0
220
0
230
1
0
CIRCLE
5
125
100
AcDbEntity
8
0
100
AcDbCircle
10
-4.0250000000000004
20
2.1699999668797019
30
0
40
0.059055118110236358
210
0
220
0
230
1
0
CIRCLE
5
126
100
AcDbEntity
8
0
100
AcDbCircle
10
-4.7646407480314812
20
0.42999999999999988
30
0
40
0.059055118110236358
210
0
220
0
230
1
0
CIRCLE
5
127
100
AcDbEntity
8
0
100
AcDbCircle
10
-4.3105052125655643
20
1.6562452220604178
30
0
40
0.059055118110236358
210
0
220
0
230
1
0
CIRCLE
5
128
100
AcDbEntity
8
0
100
AcDbCircle
10
-2.5433905424561711
20
1.3633790561160137
30
0
40
0.059055118110236005
210
0
220
0
230
1
0
CIRCLE
5
129
100
AcDbEntity
8
0
100
AcDbCircle
10
-0.89928022399584506
20
1.0696798253848148
30
0
40
0.059055118110236192
210
0
220
-0
230
1
0
CIRCLE
5
130
100
AcDbEntity
8
0
100
AcDbCircle
10
-0.52071977600415476
20
1.0696798253848148
30
0
40
0.059055118110236192
210
-0
220
0
230
1
0
CIRCLE
5
131
100
AcDbEntity
8
0
100
AcDbCircle
10
-2.4267280670300848
20
1.6397662244640718
30
0
40
0.059055118110236358
210
0
220
0
230
1
0
CIRCLE
5
132
100
AcDbEntity
8
0
100
AcDbCircle
10
-4.0248446694161686
20
1.3762486969255645
30
0
40
0.059055118110236358
210
0
220
0
230
1
0
CIRCLE
5
133
100
AcDbEntity
8
0
100
AcDbCircle
10
-4.8507197760041549
20
1.0696798253848148
30
0
40
0.059055118110236358
210
0
220
0
230
1
0
CIRCLE
5
134
100
AcDbEntity
8
0
100
AcDbCircle
10
-1.7250000000000001
20
2.1699999668797019
30
0
40
0.059055118110236005
210
0
220
0
230
1
0
CIRCLE
5
135
100
AcDbEntity
8
0
100
AcDbCircle
10
-2.6749999999999998
20
2.5499999668796995
30
0
40
0.059055118110236358
210
0
220
0
230
1
0
CIRCLE
5
136
100
AcDbEntity
8
0
100
AcDbCircle
10
-1.6274999999999991
20
3.2562500000000014
30
0
40
0.059055118110236358
210
0
220
0
230
1
0
CIRCLE
5
137
100
AcDbEntity
8
0
100
AcDbCircle
10
-2.3120434930988809
20
3.6180610236220359
30
0
40
0.059055118110236005
210
0
220
0
230
1
0
CIRCLE
5
138
100
AcDbEntity
8
0
100
AcDbCircle
10
-4.14216679003209
20
2.9962500000000034
30
0
40
0.059055118110236358
210
0
220
0
230
1
0
CIRCLE
5
139
100
AcDbEntity
8
0
100
AcDbCircle
10
-4.122166790032094
20
3.516250000000003
30
0
40
0.059055118110236358
210
0
220
0
230
1
0
CIRCLE
5
140
100
AcDbEntity
8
0
100
AcDbCircle
10
-3.7020434930988806
20
3.6180610236220359
30
0
40
0.059055118110236358
210
0
220
0
230
1
0
CIRCLE
5
141
100
AcDbEntity
8
0
100
AcDbCircle
10
-1.5578332099679106
20
3.5162499999999994
30
0
40
0.059055118110236358
210
0
220
0
230
1
0
CIRCLE
5
142
100
AcDbEntity
8
0
100
AcDbCircle
10
-1.5578332099679064
20
2.996250000000003
30
0
40
0.059055118110236358
210
0
220
0
230
1
0
CIRCLE
5
143
100
AcDbEntity
8
0
100
AcDbCircle
10
-3.7006889763779527
20
2.539999966879702
30
0
40
0.059055118110236358
210
0
220
0
230
1
0
CIRCLE
5
144
100
AcDbEntity
8
0
100
AcDbCircle
10
-0.19436515748031424
20
2.0474999999999972
30
0
40
0.059055118110236227
210
0
220
0
230
1
0
CIRCLE
5
145
100
AcDbEntity
8
0
100
AcDbCircle
10
-5.1899999999999995
20
1.7000000000001823
30
0
40
0.059055118110236358
210
0
220
0
230
1
0
CIRCLE
5
146
100
AcDbEntity
8
0
100
AcDbCircle
10
-3.2066094575438284
20
1.3633790561160137
30
0
40
0.059055118110236005
210
0
220
0
230
1
0
CIRCLE
5
147
100
AcDbEntity
8
0
100
AcDbCircle
10
-1.4394947874344357
20
1.6562452220604178
30
0
40
0.059055118110236358
210
0
220
0
230
1
0
CIRCLE
5
148
100
AcDbEntity
8
0
100
AcDbCircle
10
-0.9853592519685056
20
0.43094488188976376
30
0
40
0.059055118110236178
210
0
220
0
230
1
0
CIRCLE
5
149
100
AcDbEntity
8
0
100
AcDbCircle
10
-1.725155330583831
20
1.3762486969255645
30
0
40
0.059055118110236005
210
0
220
0
230
1
0
CIRCLE
5
150
100
AcDbEntity
8
0
100
AcDbCircle
10
-3.3232719329699152
20
1.6397662244640718
30
0
40
0.059055118110236358
210
0
220
0
230
1
0
CIRCLE
5
151
100
AcDbEntity
8
0
100
AcDbCircle
10
-5.2292802239958451
20
1.0696798253848148
30
0
40
0.059055118110236358
210
0
220
0
230
1
0
CIRCLE
5
152
100
AcDbEntity
8
0
100
AcDbCircle
10
-0.19436515748031538
20
2.3274999999999988
30
0
40
0.059055118110236227
210
0
220
0
230
1
0
CIRCLE
5
153
100
AcDbEntity
8
0
100
AcDbCircle
10
-3.0749999999999997
20
2.5499999668796995
30
0
40
0.059055118110236358
210
0
220
0
230
1
0
CIRCLE
5
154
100
AcDbEntity
8
0
100
AcDbCircle
10
-1.8078332099679097
20
2.9962500000000034
30
0
40
0.059055118110236358
210
0
220
0
230
1
0
CIRCLE
5
155
100
AcDbEntity
8
0
100
AcDbCircle
10
-1.8078332099679104
20
3.5162500000000003
30
0
40
0.059055118110236005
210
0
220
0
230
1
0
CIRCLE
5
156
100
AcDbEntity
8
0
100
AcDbCircle
10
-3.7006889763779522
20
3.0918109905017466
30
0
40
0.059055118110235658
210
0
220
0
230
1
0
CIRCLE
5
157
100
AcDbEntity
8
0
100
AcDbCircle
10
-4.3425000000000029
20
3.7065832099679095
30
0
40
0.059055118110235658
210
0
220
0
230
1
0
CIRCLE
5
158
100
AcDbEntity
8
0
100
AcDbCircle
10
-4.7125000000000004
20
3.2562499999999996
30
0
40
0.18700787401574787
210
0
220
-0
230
1
0
CIRCLE
5
159
100
AcDbEntity
8
0
100
AcDbCircle
10
-0.64538503999060415
20
2.6237940208171602
30
0
40
0.078740157480314932
210
0
220
-0
230
1
0
CIRCLE
5
160
100
AcDbEntity
8
0
100
AcDbCircle
10
-0.64296216572820741
20
0.28851881364725934
30
0
40
0.078740157480314932
210
0
220
-0
230
1
0
ARC
5
161
100
AcDbEntity
8
0
100
AcDbCircle
10
-3.4500000000000024
20
1.940000000000685
30
0
40
0.1250000000000008
210
0
220
0
230
1
100
AcDbArc
50
-81.22976458199247
51
261.22976458199423
0
LINE
5
162
100
AcDbEntity
8
0
100
AcDbLine
10
-3.4309409448818897
20
1.8164615346633237
30
0
11
-3.4309409448818857
21
1.8384615346633237
31
0
0
LINE
5
163
100
AcDbEntity
8
0
100
AcDbLine
10
-3.4309409448818857
20
1.8384615346633237
30
0
11
-3.4690590551181155
21
1.838461534663324
31
0
0
LINE
5
164
100
AcDbEntity
8
0
100
AcDbLine
10
-3.4690590551181155
20
1.838461534663324
30
0
11
-3.4690590551181106
21
1.8164615346633239
31
0
0
ARC
5
165
100
AcDbEntity
8
0
100
AcDbCircle
10
-2.2999999999999998
20
1.940000000000685
30
0
40
0.12499999999999994
210
0
220
0
230
1
100
AcDbArc
50
-81.229764581992825
51
261.22976458199366
0
LINE
5
166
100
AcDbEntity
8
0
100
AcDbLine
10
-2.2809409448818307
20
1.8164615346629505
30
0
11
-2.2809409448818845
21
1.8384615346633244
31
0
0
LINE
5
167
100
AcDbEntity
8
0
100
AcDbLine
10
-2.2809409448818845
20
1.8384615346633244
30
0
11
-2.3190590551181143
21
1.838461534663324
31
0
0
LINE
5
168
100
AcDbEntity
8
0
100
AcDbLine
10
-2.3190590551181143
20
1.838461534663324
30
0
11
-2.3190590551181094
21
1.8164615346633239
31
0
0
CIRCLE
5
169
100
AcDbEntity
8
0
100
AcDbCircle
10
-0.70999999999999985
20
1.3400000000001822
30
0
40
0.13779527559055121
210
0
220
-0
230
1
0
CIRCLE
5
170
100
AcDbEntity
8
0
100
AcDbCircle
10
-5.1070378342717913
20
0.28851881364725906
30
0
40
0.078740157480314668
210
0
220
-0
230
1
0
CIRCLE
5
171
100
AcDbEntity
8
0
100
AcDbCircle
10
-5.1046149600093962
20
2.6237940208171597
30
0
40
0.078740157480314668
210
0
220
-0
230
1
0
CIRCLE
5
172
100
AcDbEntity
8
0
100
AcDbCircle
10
-2.875
20
3.2562499999999996
30
0
40
0.13779527559055102
210
0
220
-0
230
1
0
CIRCLE
5
173
100
AcDbEntity
8
0
100
AcDbCircle
10
-1.7250000000000001
20
2.4900000000003399
30
0
40
0.13779527559055102
210
0
220
-0
230
1
0
LWPOLYLINE
5
174
100
AcDbEntity
8
0
100
AcDbPolyline
90
4
70
1
43
0.0
10
-4.7455816929133841
20
0.61646153466225617
42
13.040440032180818
10
-4.7836998031496041
20
0.61646153466225606
10
-4.7836998031496041
20
0.63846153466225641
10
-4.7455816929133841
20
0.63846153466225641
0
ARC
5
175
100
AcDbEntity
8
0
100
AcDbCircle
10
-4.5999999999999996
20
1.9400000000003397
30
0
40
0.12499999999999982
210
0
220
0
230
1
100
AcDbArc
50
-81.229764582029873
51
261.22976458201009
0
LINE
5
176
100
AcDbEntity
8
0
100
AcDbLine
10
-4.5809409448819105
20
1.8164615346625925
30
0
11
-4.5809409448818998
21
1.8384615346625925
31
0
0
LINE
5
177
100
AcDbEntity
8
0
100
AcDbLine
10
-4.5809409448818998
20
1.8384615346625925
30
0
11
-4.6190590551181332
21
1.8384615346625992
31
0
0
LINE
5
178
100
AcDbEntity
8
0
100
AcDbLine
10
-4.6190590551181332
20
1.8384615346625992
30
0
11
-4.6190590551181314
21
1.8164615346625994
31
0
0
ARC
5
179
100
AcDbEntity
8
0
100
AcDbCircle
10
-1.1500000000000024
20
1.9400000000003401
30
0
40
0.12500000000000044
210
0
220
0
230
1
100
AcDbArc
50
-81.229764582009309
51
261.22976458203095
0
LINE
5
180
100
AcDbEntity
8
0
100
AcDbLine
10
-1.1309409448818688
20
1.8164615346625999
30
0
11
-1.1309409448818659
21
1.8384615346625999
31
0
0
LINE
5
181
100
AcDbEntity
8
0
100
AcDbLine
10
-1.1309409448818659
20
1.8384615346625999
30
0
11
-1.1690590551180999
21
1.8384615346625928
31
0
0
LINE
5
182
100
AcDbEntity
8
0
100
AcDbLine
10
-1.1690590551180999
20
1.8384615346625928
30
0
11
-1.1690590551180893
21
1.8164615346625927
31
0
0
LWPOLYLINE
5
183
100
AcDbEntity
8
0
100
AcDbPolyline
90
4
70
1
43
0.0
10
-0.9663001968503947
20
0.61646153466225651
42
13.040440032180818
10
-1.0044183070866148
20
0.61646153466225662
10
-1.0044183070866148
20
0.63846153466225641
10
-0.96630019685039503
20
0.63846153466225652
0
CIRCLE
5
184
100
AcDbEntity
8
0
100
AcDbCircle
10
-5.04
20
1.3400000000001822
30
0
40
0.13779527559055102
210
0
220
-0
230
1
0
CIRCLE
5
185
100
AcDbEntity
8
0
100
AcDbCircle
10
-4.0249999999999995
20
2.4900000000003399
30
0
40
0.13779527559055102
210
0
220
-0
230
1
0
CIRCLE
5
186
100
AcDbEntity
8
0
100
AcDbCircle
10
-1.0374999999999999
20
3.2562499999999996
30
0
40
0.18700787401574803
210
0
220
-0
230
1
0
CIRCLE
5
187
100
AcDbEntity
8
0
100
AcDbCircle
10
-5.5625
20
0.56249999999999989
30
0
40
0.098425196850393692
210
0
220
-0
230
1
0
CIRCLE
5
188
100
AcDbEntity
8
0
100
AcDbCircle
10
-5.5625
20
3.5624999999999996
30
0
40
0.098425196850393692
210
0
220
-0
230
1
0
CIRCLE
5
189
100
AcDbEntity
8
0
100
AcDbCircle
10
-5.5625
20
1.3125
30
0
40
0.098425196850393692
210
0
220
-0
230
1
0
CIRCLE
5
190
100
AcDbEntity
8
0
100
AcDbCircle
10
-0.1875
20
4.3124999999999991
30
0
40
0.098425196850393692
210
0
220
-0
230
1
0
CIRCLE
5
191
100
AcDbEntity
8
0
100
AcDbCircle
10
-0.1875
20
1.3125
30
0
40
0.098425196850393692
210
0
220
-0
230
1
0
CIRCLE
5
192
100
AcDbEntity
8
0
100
AcDbCircle
10
-0.1875
20
3.5624999999999996
30
0
40
0.098425196850393692
210
0
220
-0
230
1
0
CIRCLE
5
193
100
AcDbEntity
8
0
100
AcDbCircle
10
-0.1875
20
0.56249999999999989
30
0
40
0.098425196850393692
210
0
220
-0
230
1
0
CIRCLE
5
194
100
AcDbEntity
8
0
100
AcDbCircle
10
-5.5625
20
4.3124999999999991
30
0
40
0.098425196850393692
210
0
220
-0
230
1
0
CIRCLE
5
195
100
AcDbEntity
8
0
100
AcDbCircle
10
-2.875
20
3.531840551181102
30
0
40
0.059055118110236358
210
0
220
-0
230
1
0
ENDSEC
0
SECTION
2
OBJECTS
0
DICTIONARY
5
C
100
AcDbDictionary
3
ACAD_GROUP
350
D
3
ACAD_MLINESTYLE
350
17
0
DICTIONARY
5
D
100
AcDbDictionary
0
DICTIONARY
5
1A
330
C
100
AcDbDictionary
0
DICTIONARY
5
17
100
AcDbDictionary
0
ENDSEC
0
EOF
