0
SECTION
2
HEADER
9
$INSUNITS
70
1
9
$ACADVER
1
AC1014
9
$HANDSEED
5
FFFF
0
ENDSEC
0
SECTION
2
TABLES
0
TABLE
2
VPORT
5
8
100
AcDbSymbolTable
0
ENDTAB
0
TABLE
2
LTYPE
5
5
100
AcDbSymbolTable
0
LTYPE
5
14
100
AcDbSymbolTableRecord
100
AcDbLinetypeTableRecord
2
BYBLOCK
70
0
0
LTYPE
5
15
100
AcDbSymbolTableRecord
100
AcDbLinetypeTableRecord
2
BYLAYER
70
0
0
ENDTAB
0
TABLE
2
LAYER
5
2
100
AcDbSymbolTable
70
2
0
LAYER
5
50
100
AcDbSymbolTableRecord
100
AcDbLayerTableRecord
2
0
70
0
6
CONTINUOUS
0
ENDTAB
0
TABLE
2
STYLE
5
3
100
AcDbSymbolTable
70
1
0
STYLE
5
11
100
AcDbSymbolTableRecord
100
AcDbTextStyleTableRecord
2
STANDARD
70
0
0
ENDTAB
0
TABLE
2
VIEW
5
6
100
AcDbSymbolTable
70
0
0
ENDTAB
0
TABLE
2
UCS
5
7
100
AcDbSymbolTable
70
0
0
ENDTAB
0
TABLE
2
APPID
5
9
100
AcDbSymbolTable
70
2
0
APPID
5
12
100
AcDbSymbolTableRecord
100
AcDbRegAppTableRecord
2
ACAD
70
0
0
ENDTAB
0
TABLE
2
DIMSTYLE
5
A
100
AcDbSymbolTable
70
1
0
ENDTAB
0
TABLE
2
BLOCK_RECORD
5
1
100
AcDbSymbolTable
70
1
0
BLOCK_RECORD
5
1F
100
AcDbSymbolTableRecord
100
AcDbBlockTableRecord
2
*MODEL_SPACE
0
BLOCK_RECORD
5
1B
100
AcDbSymbolTableRecord
100
AcDbBlockTableRecord
2
*PAPER_SPACE
0
ENDTAB
0
ENDSEC
0
SECTION
2
BLOCKS
0
BLOCK
5
20
100
AcDbEntity
100
AcDbBlockBegin
2
*MODEL_SPACE
0
ENDBLK
5
21
100
AcDbEntity
100
AcDbBlockEnd
0
BLOCK
5
1C
100
AcDbEntity
100
AcDbBlockBegin
2
*PAPER_SPACE
0
ENDBLK
5
1D
100
AcDbEntity
100
AcDbBlockEnd
0
ENDSEC
0
SECTION
2
ENTITIES
0
CIRCLE
5
100
100
AcDbEntity
8
0
100
AcDbCircle
10
-1.7250000000000001
20
2.4899999668797022
30
0
40
0.23779527559055119
210
0
220
-0
230
1
0
CIRCLE
5
101
100
AcDbEntity
8
0
100
AcDbCircle
10
-4.0249999999999995
20
2.4899999668797022
30
0
40
0.23779527559055155
210
0
220
-0
230
1
0
LWPOLYLINE
5
102
100
AcDbEntity
8
0
100
AcDbPolyline
90
52
70
1
43
0.0
10
-4.4621425476603109
20
0.18912982552305557
42
-0.55140265367662034
10
-4.390625
20
0.1439967429484488
10
-4.390625
20
0.093749999999999972
42
-0.41421356237309248
10
-4.4687499999999991
20
0.015625000000000003
10
-5.2343749999999991
20
0.015625000000000298
42
-0.4142135623730977
10
-5.3125
20
0.093749999999999875
10
-5.3125
20
1.3125
42
0.41421356237309664
10
-5.5625
20
1.5625
10
-5.65625
20
1.5625000000000002
42
-0.41421356237309503
10
-5.734375
20
1.6406250000000004
10
-5.7343749999999991
20
2.7343749999999987
42
-0.41421356237309503
10
-5.6562499999999982
20
2.8124999999999996
10
-5.3125
20
2.8124999999999996
42
0.41421356237306634
10
-5.2624999999999993
20
2.8625000000000003
10
-5.2624999999999993
20
3.756250000002515
42
-0.41421356237309503
10
-5.1625000000025141
20
3.8562500000000002
10
-0.58749999999999192
20
3.8562499999999988
42
-0.41421356237309503
10
-0.48750000000000027
20
3.7562500000000072
10
-0.48749999999999999
20
2.8625000000000003
42
0.41421356237309503
10
-0.43749999999999928
20
2.8124999999999996
10
-0.093750000000000985
20
2.8125
42
-0.41421356237309503
10
-0.015624999999999774
20
2.7343749999999987
10
-0.015624999999999927
20
1.6406250000000004
42
-0.41421356237309381
10
-0.093750000000000042
20
1.5625
10
-0.1875
20
1.5625
42
0.41421356237309531
10
-0.4375
20
1.3125
10
-0.43750000000000017
20
0.093749999999999958
42
-0.41421356237309631
10
-0.51562500000000022
20
0.015625000000000003
10
-1.2812500000000004
20
0.015625000000000028
42
-0.41421356237309503
10
-1.3593750000000004
20
0.093749999999999944
10
-1.3593750000000004
20
0.14399674294844966
42
-0.55140265367662367
10
-1.2878574523396891
20
0.18912982552305599
42
0.90495062511628743
10
-1.1052017559306675
20
0.49069750610825319
42
-0.23585711591314359
10
-1.1131889763779514
20
0.50668791346447295
10
-1.1131889763779514
20
0.52000511248262415
42
-0.55494591634920609
10
-1.0843865498955476
20
0.53796387881057317
42
1.6038087447899396
10
-1.0843865498955476
20
0.94203612118942626
42
-0.55494591634920964
10
-1.1131889763779514
20
0.95999488751737572
10
-1.1131889763779514
20
0.99456208653553579
42
-0.23585711591313646
10
-1.1052017559306677
20
1.0105524938917556
42
1.1520795527978804
10
-1.3532614824861795
20
1.2586122204473182
42
-0.23585711591308242
10
-1.3692518898423969
20
1.2506250000000376
10
-4.3807481101576009
20
1.2506250000000378
42
-0.23585711591305944
10
-4.3967385175138185
20
1.2586122204473185
42
1.1520795527978764
10
-4.6447982440693307
20
1.0105524938917567
42
-0.23585711591316047
10
-4.6368110236220463
20
0.99456208653553668
10
-4.6368110236220463
20
0.95999488751737483
42
-0.55494591634920643
10
-4.6656134501044502
20
0.94203612118942592
42
1.6038087447899554
10
-4.6656134501044502
20
0.53796387881057472
42
-0.5549459163492273
10
-4.6368110236220463
20
0.52000511248262504
10
-4.6368110236220463
20
0.50668791346447206
42
-0.2358571159131517
10
-4.6447982440693307
20
0.49069750610825225
42
0.90495062511628044
0
CIRCLE
5
103
100
AcDbEntity
8
0
100
AcDbCircle
10
-5.1046149600093962
20
2.6237940208171597
30
0
40
0.078740157480314668
210
0
220
-0
230
1
0
CIRCLE
5
104
100
AcDbEntity
8
0
100
AcDbCircle
10
-5.1070378342717913
20
0.28851881364725906
30
0
40
0.078740157480314668
210
0
220
-0
230
1
0
CIRCLE
5
105
100
AcDbEntity
8
0
100
AcDbCircle
10
-0.64296216572820741
20
0.28851881364725934
30
0
40
0.078740157480314932
210
0
220
-0
230
1
0
CIRCLE
5
106
100
AcDbEntity
8
0
100
AcDbCircle
10
-0.64538503999060415
20
2.6237940208171602
30
0
40
0.078740157480314932
210
0
220
-0
230
1
0
CIRCLE
5
107
100
AcDbEntity
8
0
100
AcDbCircle
10
-4.7125000000000004
20
3.2562499999999996
30
0
40
0.28700787401574768
210
0
220
-0
230
1
0
CIRCLE
5
108
100
AcDbEntity
8
0
100
AcDbCircle
10
-5.04
20
1.3400000000001822
30
0
40
0.24763779527559035
210
0
220
-0
230
1
0
CIRCLE
5
109
100
AcDbEntity
8
0
100
AcDbCircle
10
-1.1500000000000001
20
1.9399999668797021
30
0
40
0.22499999999999995
210
0
220
-0
230
1
0
CIRCLE
5
110
100
AcDbEntity
8
0
100
AcDbCircle
10
-0.70999999999999985
20
1.3400000000001822
30
0
40
0.24763779527559054
210
0
220
-0
230
1
0
CIRCLE
5
111
100
AcDbEntity
8
0
100
AcDbCircle
10
-4.5999999999999996
20
1.9399999668797021
30
0
40
0.22500000000000012
210
0
220
-0
230
1
0
CIRCLE
5
112
100
AcDbEntity
8
0
100
AcDbCircle
10
-2.875
20
3.2562499999999996
30
0
40
0.23779527559055119
210
0
220
-0
230
1
0
CIRCLE
5
113
100
AcDbEntity
8
0
100
AcDbCircle
10
-2.2999999999999998
20
1.939999966879894
30
0
40
0.22500000000000012
210
0
220
-0
230
1
0
CIRCLE
5
114
100
AcDbEntity
8
0
100
AcDbCircle
10
-3.4499999999999997
20
1.939999966879894
30
0
40
0.22500000000000012
210
0
220
-0
230
1
0
CIRCLE
5
115
100
AcDbEntity
8
0
100
AcDbCircle
10
-1.0374999999999999
20
3.2562499999999996
30
0
40
0.28700787401574807
210
0
220
-0
230
1
0
ENDSEC
0
SECTION
2
OBJECTS
0
DICTIONARY
5
C
100
AcDbDictionary
3
ACAD_GROUP
350
D
3
ACAD_MLINESTYLE
350
17
0
DICTIONARY
5
D
100
AcDbDictionary
0
DICTIONARY
5
1A
330
C
100
AcDbDictionary
0
DICTIONARY
5
17
100
AcDbDictionary
0
ENDSEC
0
EOF
